<?xml version="1.0" encoding="UTF-8"?>
<svg width="48px" height="48px" viewBox="0 0 48 48" version="1.1" xmlns="http://www.w3.org/2000/svg" xmlns:xlink="http://www.w3.org/1999/xlink">
    <!-- Generator: Sketch 50.2 (55047) - http://www.bohemiancoding.com/sketch -->
    <title>ia</title>
    <desc>Created with Sketch.</desc>
    <defs></defs>
    <g id="Page-1" stroke="none" stroke-width="1" fill="none" fill-rule="evenodd" stroke-linecap="round" stroke-linejoin="round">
        <g id="Desktop-HD" transform="translate(-747.000000, -5778.000000)" stroke="#181818">
            <g id="ia" transform="translate(748.000000, 5779.000000)">
                <polygon id="Stroke-2692" points="26 6 0 6 0 0 26 0"></polygon>
                <polygon id="Stroke-2693" points="46 28 20 28 20 22 46 22"></polygon>
                <polygon id="Stroke-2694" points="26 46 0 46 0 40 26 40"></polygon>
                <path d="M14,6 L14,13 C14,14.656 15.344,16 17,16 L23,16 C24.656,16 26,17.344 26,19 L26,22" id="Stroke-2695"></path>
                <path d="M36,28 L36,39 C36,40.656 34.658,42 33,42 L26,42" id="Stroke-2696"></path>
            </g>
        </g>
    </g>
</svg>