<?xml version="1.0" encoding="UTF-8"?>
<svg width="32px" height="48px" viewBox="0 0 32 48" version="1.1" xmlns="http://www.w3.org/2000/svg" xmlns:xlink="http://www.w3.org/1999/xlink">
    <!-- Generator: Sketch 50.2 (55047) - http://www.bohemiancoding.com/sketch -->
    <title>prototype</title>
    <desc>Created with Sketch.</desc>
    <defs></defs>
    <g id="Page-1" stroke="none" stroke-width="1" fill="none" fill-rule="evenodd" stroke-linecap="round" stroke-linejoin="round">
        <g id="Desktop-HD" transform="translate(-1016.000000, -5604.000000)" stroke="#181818">
            <g id="prototype" transform="translate(1017.000000, 5605.000000)">
                <path d="M30,42 C30,44.208 28.208,46 26,46 L4,46 C1.79,46 0,44.208 0,42 L0,4 C0,1.792 1.79,0 4,0 L26,0 C28.208,0 30,1.792 30,4 L30,42 L30,42 Z" id="Stroke-2079"></path>
                <path d="M30,8 L0,8" id="Stroke-2080"></path>
                <path d="M30,38 L0,38" id="Stroke-2081"></path>
                <path d="M10,4 L20,4" id="Stroke-2082"></path>
                <path d="M16,42 C16,42.552 15.552,43 15,43 C14.448,43 14,42.552 14,42 C14,41.448 14.448,41 15,41 C15.552,41 16,41.448 16,42 L16,42 Z" id="Stroke-2083"></path>
            </g>
        </g>
    </g>
</svg>