<?xml version="1.0" standalone="no"?>
<!DOCTYPE svg PUBLIC "-//W3C//DTD SVG 20010904//EN"
 "http://www.w3.org/TR/2001/REC-SVG-20010904/DTD/svg10.dtd">
<svg version="1.0" xmlns="http://www.w3.org/2000/svg"
 width="704.000000pt" height="704.000000pt" viewBox="0 0 704.000000 704.000000"
 preserveAspectRatio="xMidYMid meet">
<metadata>
Created by potrace 1.11, written by Peter Selinger 2001-2013
</metadata>
<g transform="translate(0.000000,704.000000) scale(0.100000,-0.100000)"
fill="#000000" stroke="none">
<path d="M1920 3520 l0 -2640 640 0 640 0 0 2640 0 2640 -640 0 -640 0 0
-2640z"/>
<path d="M3840 3520 l0 -2640 640 0 640 0 0 2640 0 2640 -640 0 -640 0 0
-2640z"/>
<path d="M5760 4805 c0 -745 3 -1355 8 -1355 4 1 291 198 637 439 l630 438 3
916 2 917 -640 0 -640 0 0 -1355z"/>
<path d="M0 2235 l0 -1355 640 0 640 0 -2 932 -3 932 -630 423 c-347 232 -633
422 -637 423 -5 0 -8 -610 -8 -1355z"/>
</g>
</svg>
