<?xml version="1.0" encoding="UTF-8"?>
<svg width="13px" height="10px" viewBox="0 0 13 10" version="1.1" xmlns="http://www.w3.org/2000/svg" xmlns:xlink="http://www.w3.org/1999/xlink">
    <!-- Generator: Sketch 50.2 (55047) - http://www.bohemiancoding.com/sketch -->
    <title>Fill 375</title>
    <desc>Created with Sketch.</desc>
    <defs></defs>
    <g id="Page-1" stroke="none" stroke-width="1" fill="none" fill-rule="evenodd">
        <g id="Fill-375" fill="#FFFFFF">
            <path d="M12.9349458,7.73305 L6.70632083,0.464966667 C6.6548625,0.405383333 6.5801125,0.370175 6.50102917,0.370175 C6.42194583,0.370175 6.34665417,0.405383333 6.29519583,0.464966667 L0.0654875,7.73305 C0.0183625,7.78775833 -0.00492916667,7.858175 0.00102916667,7.93021667 C0.00644583333,8.00171667 0.0400291667,8.06834167 0.0947375,8.114925 L1.49277917,9.31363333 C1.5442375,9.35750833 1.60652917,9.37863333 1.6693625,9.37863333 C1.7457375,9.37863333 1.82157083,9.346675 1.87519583,9.28438333 L6.50102917,3.88884167 L11.1252375,9.28384167 C11.1718208,9.33909167 11.2384458,9.37213333 11.3099458,9.37809167 C11.3814458,9.38296667 11.4524042,9.36021667 11.5071125,9.31363333 L12.9056958,8.114925 C13.0189042,8.017425 13.0324458,7.8468 12.9349458,7.73305"></path>
        </g>
    </g>
</svg>